
            <svg width="3209.566826686706" height="1121.1825227738761" xmlns="http://www.w3.org/2000/svg" xmlns:xlink="http://www.w3.org/1999/xlink" version="1.1">
                <rect fill="#25064D" width="3209.566826686706" height="1121.1825227738761"/>
                <g transform="scale(10.47834133433529) translate(10, 10)">
                    <g id="SvgjsG1101" rel="mainfill" name="main_text" xmlns:name="mainText_mainfill" transform="translate(93.54215121269226,-22.800349712371826)" fill="#ffffff"><path fill="#ffffff" d="M19.766 35.498999999999995 c15.732 0 23.512 11.641 23.512 22.763 c0 11.756 -7.8373 23.338 -23.339 23.338 l-15.732 0 c-0.51864 0 -0.74915 -0.28757 -0.74915 -0.74858 l0 -44.603 c0 -0.51864 0.23051 -0.74915 0.74915 -0.74915 l15.559 0 z M20.169 77.22139999999999 c12.043 0 18.556 -9.4514 18.498 -18.96 c0 -9.4508 -6.339 -18.382 -18.498 -18.382 l-12.217 0 l0.057627 37.342 l12.159 0 z M68.92145762711864 54.745999999999995 c0.51864 0.34576 0.63447 0.57571 0.34633 0.97908 l-1.6712 2.4203 c-0.17288 0.34576 -0.46102 0.40339 -0.86441 0.23051 c-1.6136 -0.86441 -2.8814 -1.4407 -5.0136 -1.4407 c-2.0746 0 -5.0706 0.86441 -7.3192 4.4373 l0 19.478 c0 0.40339 -0.23051 0.74858 -0.6339 0.74858 l-3.0542 0 c-0.40395 0 -0.63447 -0.3452 -0.63447 -0.74858 l0 -27.085 c0 -0.34576 0.23051 -0.69153 0.63447 -0.69153 l2.1898 0 c0.92203 0 1.4983 0.92203 1.4983 1.6712 l0 1.6136 c2.4203 -2.3051 5.1288 -3.5153 8.1254 -3.5153 c2.8814 0 5.1864 1.0955 6.3966 1.9023 z M87.70822033898305 81.9452 c8.0102 0 14.695 -6.396 14.695 -14.579 c0 -8.3559 -6.6847 -14.753 -14.695 -14.753 c-8.1254 0 -14.81 6.3966 -14.81 14.753 c0 8.1831 6.6847 14.579 14.81 14.579 z M87.70822033898305 77.8548 c-6.0508 0 -10.546 -4.9559 -10.546 -10.488 c0 -5.6475 4.4949 -10.603 10.546 -10.603 c5.9356 0 10.431 4.9559 10.431 10.603 c0 5.5322 -4.4949 10.488 -10.431 10.488 z M135.0774745762712 53.074999999999996 l-3.3994 0 c-0.46102 0 -0.57627 0.17288 -0.74915 0.57627 l-9.9695 20.976 l-10.027 -20.976 c-0.17288 -0.40339 -0.28814 -0.57627 -0.69153 -0.57627 l-3.5729 0 c-0.40339 0 -0.57627 0.17288 -0.40339 0.57627 l13.657 27.719 c0.17288 0.28757 0.46102 0.57515 0.80678 0.57515 l0.51864 0 c0.28814 0 0.6339 -0.28757 0.80678 -0.57515 l13.542 -27.719 c0.17288 -0.40339 -0.17288 -0.57627 -0.51864 -0.57627 z M164.69754237288134 69.268 c1.6136 0 2.7661 -0.63447 2.7661 -2.7091 c0 -7.3763 -5.7051 -13.888 -13.946 -13.888 c-8.0102 0 -14.176 6.3966 -14.176 14.637 c0 8.5288 6.5119 14.636 14.58 14.636 c5.0712 0 9.0475 -2.4192 11.641 -5.7616 c0.28814 -0.40339 0.23051 -0.69153 -0.11525 -1.0373 l-0.74915 -0.97966 c-0.3452 -0.46102 -0.74915 -0.40339 -1.1525 -0.057064 c-2.1898 2.1898 -5.3593 3.9186 -9.2203 3.9186 c-6.1661 0 -9.8542 -4.322 -10.372 -8.7593 l20.745 0 z M143.89434237288137 65.753 c0.11525 -3.861 3.1695 -9.0475 9.5661 -9.0475 s9.3356 5.3593 9.5085 9.0475 l-19.075 0 z M192.12823728813558 54.745999999999995 c0.51864 0.34576 0.63447 0.57571 0.34633 0.97908 l-1.6712 2.4203 c-0.17288 0.34576 -0.46102 0.40339 -0.86441 0.23051 c-1.6136 -0.86441 -2.8814 -1.4407 -5.0136 -1.4407 c-2.0746 0 -5.0706 0.86441 -7.3192 4.4373 l0 19.478 c0 0.40339 -0.23051 0.74858 -0.6339 0.74858 l-3.0542 0 c-0.40395 0 -0.63447 -0.3452 -0.63447 -0.74858 l0 -27.085 c0 -0.34576 0.23051 -0.69153 0.63447 -0.69153 l2.1898 0 c0.92203 0 1.4983 0.92203 1.4983 1.6712 l0 1.6136 c2.4203 -2.3051 5.1288 -3.5153 8.1254 -3.5153 c2.8814 0 5.1864 1.0955 6.3966 1.9023 z" style="fill: #ffffff;"/></g><g id="SvgjsG1102" rel="mainfill" name="slogan_text" xmlns:name="sloganText_mainfill" transform="translate(97.00000341795385,55.12950849533081)" fill="#ffffff"><path fill="#ffffff" d="M3.125 15.8203 q-0.0234375 0.0546875 -0.0390625 0.11328125 t-0.03125 0.10547 q-0.046875 0.1640625 0.015625 0.25 q0.0234375 0.0390625 0.171875 0.1171875 q0.0703125 0.046875 0.1796875 0.1796875 q0.390625 0.5078125 0.25 1.3515625 q-0.0859375 0.484375 -0.4609375 0.8125 q-0.2734375 0.25 -0.40625 0.2734375 q-0.0703125 0.015625 -0.19140625 0.0234375 t-0.30078 0.015625 q-0.2890625 0.0078125 -0.57421875 0.015625 t-0.56641 0.0078125 q-0.234375 0 -0.41015625 -0.00390625 t-0.29297 -0.011719 q-0.0625 0 -0.19140625 -0.015625 t-0.17578 -0.046875 l-0.023438 -0.046875 q-0.015625 -0.0234375 -0.0234375 -0.05859375 t-0.015625 -0.066406 q-0.015625 -0.078125 -0.015625 -0.203125 l0 -0.41406 l0 -0.64844 q0 -0.1640625 -0.01171875 -0.328125 t-0.011719 -0.33594 q0.015625 -0.359375 0.01953125 -0.71484375 t-0.0039063 -0.73047 q0 -0.2109375 0.01171875 -0.4296875 t0.027344 -0.42969 q0.0078125 -0.0703125 0.00390625 -0.15625 t0.011719 -0.17188 q0.03125 -0.046875 0.046875 -0.0546875 q0.0703125 -0.0546875 0.20703125 -0.0546875 l0.23047 0 q0.1015625 0.0078125 0.20703125 0.015625 t0.21484 0.0078125 q0.203125 0.0078125 0.4296875 0.01953125 t0.47656 0.042969 q0.5 0.046875 0.84375 0.3046875 q0.390625 0.3046875 0.421875 0.96875 q0 0.1015625 -0.0234375 0.296875 z M0.52344 17.7422 q0 0.109375 0.00390625 0.2109375 t0.011719 0.20313 q0.0078125 0.28125 0.1015625 0.34375 q0.0234375 0.015625 0.09375 0.0390625 t0.17969 0.039063 q0.078125 0.015625 0.16015625 0.015625 t0.16797 0.0078125 q0.078125 0 0.19921875 0.015625 t0.28516 0.015625 q0.2109375 0.0078125 0.4296875 -0.0234375 t0.44531 -0.09375 q0.453125 -0.125 0.578125 -0.625 l0 -0.0078125 q0.0234375 -0.1015625 0.03125 -0.2265625 t-0.0039063 -0.25 t-0.050781 -0.24219 t-0.10938 -0.21094 l-0.0078125 -0.0078125 q-0.1171875 -0.1171875 -0.265625 -0.18359375 t-0.3125 -0.09375 t-0.33203 -0.03125 t-0.31641 0.0039063 q-0.109375 0.015625 -0.21875 0.0234375 t-0.21094 0.015625 q-0.109375 0.015625 -0.1953125 0.015625 l-0.16406 0 q-0.28125 -0.0078125 -0.3671875 0.078125 q-0.1328125 0.109375 -0.1328125 0.3671875 l0 0.60156 z M2.5703 15.3281 l0 -0.0078125 q-0.0703125 -0.2109375 -0.17578125 -0.33984375 t-0.24609 -0.20313 t-0.3125 -0.097656 t-0.38281 -0.023438 q-0.2421875 0 -0.484375 0.0234375 q-0.3125 0.03125 -0.40625 0.203125 q-0.0625 0.1171875 -0.03515625 0.26171875 t0.035156 0.26953 q0.0078125 0.0703125 0.00390625 0.1640625 t-0.019531 0.21094 q-0.0234375 0.2265625 0.0625 0.3359375 q0.046875 0.0703125 0.125 0.10546875 t0.17188 0.050781 t0.1875 0.015625 l0.16406 0 q0.1484375 0 0.3125 -0.0078125 t0.35938 -0.03125 q0.3984375 -0.0625 0.578125 -0.3203125 q0.078125 -0.1015625 0.08984375 -0.2265625 t-0.0039063 -0.27344 l-0.0078125 -0.070313 z M9.992237500000023 14.4687 q0.1640625 0.1640625 0.26171875 0.359375 l0.19922 0.39844 q0.109375 0.2265625 0.06640625 0.45703125 t-0.25391 0.44922 q-0.1640625 0.171875 -0.546875 0.2734375 q-0.140625 0.0390625 -0.30078125 0.08203125 t-0.22266 0.18359 q-0.046875 0.1328125 0.0234375 0.2734375 q0.078125 0.1484375 0.125 0.2421875 t0.078125 0.14063 q0.0390625 0.078125 0.1015625 0.17578125 t0.14844 0.22266 q0.1796875 0.25 0.37890625 0.46875 t0.40234 0.42188 l0.039063 0.039063 q0.171875 0.171875 0.0078125 0.3359375 q-0.1796875 0.1796875 -0.34375 0.0078125 l-0.23438 -0.23438 t-0.1875 -0.20313 q-0.1875 -0.234375 -0.3515625 -0.4921875 q-0.1171875 -0.171875 -0.23828125 -0.33203125 t-0.23047 -0.34766 q-0.3125 -0.5625 -0.7734375 -0.7421875 q-0.4921875 -0.1796875 -0.71875 0.140625 q-0.0703125 0.109375 -0.0703125 0.2421875 l0 1.6953 l0 0.10156 q0 0.234375 -0.2421875 0.2421875 q-0.2421875 -0.0078125 -0.2421875 -0.296875 q0 -0.1796875 0.01171875 -0.37109375 t0.019531 -0.41016 q0.0078125 -0.1484375 -0.00390625 -0.3046875 t-0.011719 -0.30469 t0.0078125 -0.29688 t0.0078125 -0.29688 q0.0078125 -0.3515625 -0.0234375 -0.7265625 q0 -0.2578125 0.01171875 -0.5234375 t0.0039063 -0.53906 q-0.0078125 -0.140625 -0.0078125 -0.31640625 t0.046875 -0.31641 q0.140625 -0.1875 0.6640625 -0.1875 l0.24219 0 q0.28125 0 0.56640625 0.0234375 t0.56641 0.0078125 q0.6484375 -0.03125 1.0234375 0.2578125 z M7.796877500000022 16.1562 q0.296875 0.0078125 0.5234375 0.0078125 t0.38281 -0.015625 q0.1484375 -0.015625 0.33203125 -0.0390625 t0.40234 -0.0625 q0.4453125 -0.09375 0.578125 -0.4140625 q0.0546875 -0.1171875 0.0390625 -0.2578125 t-0.089844 -0.25781 t-0.1875 -0.19922 t-0.24609 -0.14063 t-0.25781 -0.082031 q-0.328125 -0.0625 -0.65234375 -0.05078125 t-0.65234 -0.0039063 q-0.0625 0 -0.12109375 -0.00390625 t-0.12109 -0.0039063 q-0.1640625 -0.0078125 -0.25 0.0859375 q-0.0703125 0.078125 -0.0546875 0.21875 q0.0078125 0.0390625 0.0078125 0.1640625 q-0.0078125 0.1171875 -0.02734375 0.2265625 t-0.027344 0.21875 q-0.046875 0.3046875 0.0703125 0.453125 q0.1015625 0.140625 0.3515625 0.15625 z M13.976560000000044 19.07031 q-0.25 -0.0390625 -0.25 -0.296875 q-0.0078125 -0.421875 -0.0078125 -0.828125 l0 -0.82813 q0 -0.234375 0.0234375 -0.46875 q0.015625 -0.171875 0.015625 -0.3203125 t-0.0078125 -0.27344 q-0.0078125 -0.078125 -0.015625 -0.1875 t-0.015625 -0.25781 q0 -0.078125 0.00390625 -0.1875 t0.011719 -0.25781 q0.0078125 -0.109375 0.01171875 -0.19140625 t0.0039063 -0.14453 l0 -0.17188 l0 -0.0078125 l0 -0.0625 q-0.0234375 -0.1953125 0.0078125 -0.2734375 q0.0234375 -0.0546875 0.1015625 -0.109375 q0.3046875 -0.15625 0.375 0.1953125 q0.0625 0.265625 0.07421875 0.51953125 t-0.011719 0.50391 l0 0.0078125 q-0.0234375 0.2421875 -0.01171875 0.484375 t-0.011719 0.48438 q-0.0234375 0.2109375 -0.0390625 0.3671875 t-0.023438 0.26563 q-0.015625 0.15625 -0.015625 0.32421875 t0.0078125 0.35547 q0.0078125 0.0390625 0.0078125 0.08984375 l0 0.12109 l0 0.25 t0.0078125 0.24219 q0 0.0859375 0.00390625 0.16015625 t-0.0039063 0.15234 q0 0.15625 -0.0078125 0.171875 q-0.03125 0.1484375 -0.234375 0.171875 z M17.968747500000067 18.90625 q-0.03125 0.140625 -0.2421875 0.1640625 q-0.21875 -0.0078125 -0.21875 -0.2421875 q0 -0.609375 -0.02734375 -1.23046875 t0.035156 -1.2305 l0 -0.0078125 q0 -0.1796875 0.00390625 -0.3515625 t-0.011719 -0.33594 l-0.0625 -0.59375 q-0.0234375 -0.25 0.078125 -0.5390625 q0.078125 -0.203125 0.2109375 -0.2421875 q0.109375 -0.0234375 0.2265625 0.109375 q0.109375 0.1171875 0.1640625 0.203125 q0.1015625 0.1484375 0.20703125 0.265625 t0.20703 0.21875 q0.0859375 0.1015625 0.17578125 0.17578125 t0.17578 0.16797 q0.078125 0.078125 0.171875 0.19921875 t0.20313 0.28516 l0.34375 0.53125 q0.0390625 0.0546875 0.08203125 0.125 t0.10547 0.16406 l0.0078125 0.0078125 q0.1640625 0.21875 0.34375 0.4140625 q0.0859375 0.09375 0.171875 0.17578125 t0.17969 0.16797 q0.0859375 0.1015625 0.203125 0.0625 q0.1796875 -0.046875 0.171875 -0.359375 q0 -0.078125 -0.01171875 -0.1640625 t-0.011719 -0.17188 q-0.0078125 -0.0625 -0.015625 -0.12109375 t-0.0078125 -0.12891 q0 -0.03125 -0.00390625 -0.0703125 t-0.0039063 -0.085938 q0.03125 -0.6875 -0.046875 -1.28125 q-0.0078125 -0.0390625 -0.0078125 -0.12890625 t0.015625 -0.23047 q0.0078125 -0.171875 0.046875 -0.3671875 q0.0234375 -0.28125 0.25 -0.28125 q0.25 0 0.25 0.296875 q0.0078125 0.2421875 0.01953125 0.48828125 t0.011719 0.48828 q0.0078125 0.359375 -0.015625 0.71875 t-0.0078125 0.71875 q0.015625 0.2421875 0.01171875 0.4765625 t-0.011719 0.46875 q0 0.1328125 0.00390625 0.26171875 t0.0039063 0.24609 l0 0.3125 q-0.0078125 0.046875 -0.01171875 0.09375 t-0.0039063 0.085938 q-0.0078125 0.0078125 -0.0078125 0.015625 t-0.0078125 0.0078125 q-0.0859375 0.1171875 -0.265625 0.1171875 q-0.2109375 0.015625 -0.3203125 -0.1328125 q-0.1171875 -0.1484375 -0.21484375 -0.3203125 t-0.21484 -0.33594 q-0.140625 -0.1875 -0.30859375 -0.40234375 t-0.37109 -0.45703 q-0.078125 -0.0859375 -0.21875 -0.3125 l-0.27344 -0.4375 q-0.1015625 -0.15625 -0.203125 -0.31640625 t-0.21094 -0.30859 q-0.046875 -0.0546875 -0.1015625 -0.12109375 t-0.11719 -0.11328 t-0.14063 -0.070313 t-0.15625 0 q-0.2109375 0.0625 -0.1953125 0.4296875 q0.0078125 0.265625 0.01171875 0.5 t0.019531 0.4375 q0.015625 0.1640625 -0.00390625 0.328125 t-0.019531 0.32031 l0 0.60938 q0 0.1953125 -0.01171875 0.3515625 t-0.027344 0.28125 z M28.75002500000009 18.57031 q-0.578125 0.515625 -1.390625 0.5546875 q-0.7890625 0.03125 -1.4921875 -0.25 l-0.0078125 -0.0078125 l-0.015625 0 q-0.1171875 -0.0390625 -0.3359375 -0.21875 q-0.2109375 -0.1875 -0.28125 -0.28125 q-0.1171875 -0.15625 -0.20703125 -0.3515625 t-0.18359 -0.375 q-0.171875 -0.3359375 -0.1875 -0.5703125 q-0.0078125 -0.1171875 -0.00390625 -0.26953125 t0.019531 -0.34766 q0.0703125 -0.859375 0.5390625 -1.5859375 q0.0390625 -0.0625 0.1484375 -0.15234375 t0.28125 -0.18359 q0.359375 -0.1953125 0.609375 -0.2734375 q0.1640625 -0.0546875 0.3671875 -0.078125 q0.46875 -0.0546875 0.9609375 0.00390625 t0.91406 0.30078 q0.0625 0.0390625 0.13671875 0.09375 t0.17578 0.13281 q0.1953125 0.1484375 0.21875 0.296875 q0.0078125 0.0703125 -0.046875 0.140625 q-0.0859375 0.109375 -0.1640625 0.109375 q-0.09375 0 -0.203125 -0.07421875 t-0.17188 -0.12109 q-0.1328125 -0.0859375 -0.21484375 -0.140625 t-0.097656 -0.070313 q-0.3984375 -0.2109375 -0.96875 -0.2109375 q-0.1328125 0 -0.2890625 0.01171875 t-0.33594 0.042969 l-0.015625 0 l-0.015625 0.0078125 q-0.9921875 0.28125 -1.2890625 1.3515625 q-0.1015625 0.3828125 -0.04296875 0.7265625 t0.15234 0.70313 q0.1484375 0.546875 0.4921875 0.7890625 t0.86719 0.33594 l0.0078125 0 q0.140625 0.0234375 0.26171875 0.0234375 t0.23828 -0.019531 t0.23828 -0.042969 t0.26172 -0.039063 q0.5546875 -0.0703125 0.7890625 -0.3984375 l0 -0.0078125 q0.171875 -0.265625 0.140625 -0.7421875 q-0.0078125 -0.25 -0.1796875 -0.40625 q-0.2109375 -0.1953125 -0.5859375 -0.1796875 l-0.625 0.023438 q-0.1015625 0.0078125 -0.1796875 0.01171875 t-0.14063 0.0039063 q-0.296875 -0.0390625 -0.2578125 -0.265625 q0.0234375 -0.15625 0.21875 -0.203125 q0.3515625 -0.03125 0.69140625 -0.0078125 t0.69922 0 l0.33594 -0.023438 q0.2265625 -0.015625 0.3359375 0.078125 q0.125 0.09375 0.1328125 0.328125 q0.0234375 0.234375 0.0234375 0.359375 q0 0.2109375 0.0078125 0.44140625 t-0.03125 0.43359 q-0.0546875 0.296875 -0.3046875 0.59375 z  M40.09373750000014 14.5547 q-0.109375 0.125 -0.359375 0.109375 l-0.39063 -0.023438 q-0.1171875 -0.0078125 -0.2265625 -0.015625 t-0.22656 -0.0078125 q-0.234375 -0.0078125 -0.34375 0.1015625 q-0.0859375 0.1015625 -0.0859375 0.3359375 q0 0.109375 0.01171875 0.21484375 t0.011719 0.21484 q0.0078125 0.2578125 0.01171875 0.44921875 t0.0039063 0.32422 q0 0.3984375 -0.046875 0.796875 q-0.0234375 0.1875 0 0.375 t0.03125 0.36719 q0.0078125 0.203125 0.01171875 0.3515625 t0.0039063 0.25 l0 0.10547 t-0.0078125 0.16797 q-0.015625 0.2109375 -0.03125 0.2578125 q-0.1015625 0.171875 -0.265625 0.125 q-0.203125 -0.0390625 -0.203125 -0.296875 q-0.0078125 -0.234375 0.01171875 -0.47265625 t0.035156 -0.47266 q0.0234375 -0.2734375 -0.00390625 -0.5546875 t-0.027344 -0.5625 q0 -0.2578125 0.01953125 -0.51953125 t0.027344 -0.51953 q0 -0.5078125 -0.1640625 -0.71875 q-0.0859375 -0.109375 -0.20703125 -0.16796875 t-0.26953 -0.074219 t-0.27734 -0.027344 t-0.25391 -0.011719 l-0.23828 0 t-0.22266 -0.046875 q-0.0625 -0.03125 -0.078125 -0.1484375 q-0.015625 -0.0859375 0.0234375 -0.1484375 q0.0546875 -0.09375 0.2734375 -0.1171875 q0.0234375 -0.0078125 0.0859375 -0.0078125 q0.328125 -0.0078125 0.63671875 0.02734375 t0.63672 0.011719 q0.1328125 -0.0078125 0.26171875 -0.0234375 t0.26953 -0.015625 l0.51953 0 t0.51953 -0.0078125 q0.1328125 0 0.23046875 0.0078125 t0.16797 0.039063 q0.2421875 0.1640625 0.125 0.328125 z M44.91408750000016 15.9922 q0.28125 0.0078125 0.5625 0.01953125 t0.5625 0.050781 q0.21875 0.03125 0.3359375 -0.09375 q0.0859375 -0.09375 0.08203125 -0.234375 t-0.0039063 -0.26563 q0.0078125 -0.1953125 0.0078125 -0.33984375 l0 -0.23828 q0 -0.046875 0.00390625 -0.125 t0.0078125 -0.16016 t0.015625 -0.16016 t0.035156 -0.125 q0.0703125 -0.1640625 0.2578125 -0.1484375 q0.203125 0.0234375 0.203125 0.3515625 q-0.0078125 0.1953125 -0.0234375 0.390625 t0 0.38281 l0 0.0078125 q0 0.3125 0.015625 0.625 t0.03125 0.61719 q0.015625 0.1875 0 0.37890625 t-0.015625 0.37891 q-0.0078125 0.328125 -0.0078125 0.65234375 l0 0.65234 q0 0.2890625 -0.0546875 0.375 q-0.03125 0.0546875 -0.125 0.078125 q-0.28125 0.0703125 -0.3203125 -0.25 q-0.0390625 -0.3984375 -0.02734375 -0.8046875 t-0.0039063 -0.8125 q-0.0078125 -0.1484375 -0.03515625 -0.328125 t-0.15234 -0.28906 q-0.1171875 -0.09375 -0.40625 -0.09375 q-0.140625 0 -0.27734375 0.0078125 t-0.27734 0 l-0.44531 0 q-0.140625 0.0078125 -0.27734375 -0.00390625 t-0.27734 -0.019531 q-0.296875 -0.0234375 -0.4453125 0.078125 q-0.1796875 0.15625 -0.1796875 0.5234375 q0 0.2421875 0.0078125 0.48828125 t0.0078125 0.48047 q0 0.1953125 -0.0078125 0.33984375 t-0.0078125 0.24609 q-0.0078125 0.109375 -0.015625 0.1875 t-0.023438 0.13281 q-0.0859375 0.1640625 -0.2734375 0.1171875 q-0.1875 -0.03125 -0.1875 -0.2890625 l0 -0.50781 t0.0078125 -0.50781 q0.0078125 -0.2421875 0 -0.48828125 t-0.0078125 -0.49609 q0 -0.3984375 0.0078125 -0.796875 l0.015625 -0.79688 q0 -0.0625 -0.0078125 -0.171875 t-0.015625 -0.27344 q-0.015625 -0.3359375 0.0234375 -0.421875 q0.1015625 -0.1484375 0.234375 -0.140625 q0.234375 0.0078125 0.2578125 0.3671875 q0.0078125 0.09375 0.01171875 0.1640625 t0.0039063 0.125 l0 0.10938 t-0.015625 0.16406 l-0.03125 0.23438 t-0.015625 0.22656 q-0.015625 0.25 0.09375 0.34375 q0.1171875 0.0859375 0.3125 0.0546875 q0.109375 -0.0078125 0.1875 -0.0078125 l0.13281 0 q0.1328125 0.0078125 0.265625 0.0234375 t0.27344 0.015625 z M50.28906250000018 18.60156 q-0.0078125 -0.4765625 -0.00390625 -0.953125 t0.0039063 -0.95313 l0 -0.27344 q0 -0.2109375 -0.01171875 -0.42578125 t0.0039063 -0.42578 q0.0078125 -0.234375 0.0078125 -0.46484375 t0.0078125 -0.46484 q0 -0.28125 0.1328125 -0.390625 q0.1015625 -0.078125 0.359375 -0.078125 q0.1328125 -0.0078125 0.23046875 -0.01171875 t0.16797 -0.0039063 q0.3046875 -0.0078125 0.609375 0.00390625 t0.60938 0.0039063 q0.1640625 -0.0078125 0.328125 -0.01171875 t0.32031 0.011719 l0.39844 0.023438 q0.0703125 0.0078125 0.12109375 0.0078125 t0.089844 0.015625 q0.1640625 0.0859375 0.15625 0.2421875 q-0.0078125 0.0703125 -0.0546875 0.11328125 t-0.10547 0.066406 t-0.12109 0.03125 t-0.10938 0.0078125 q-0.4765625 0 -0.9453125 -0.0234375 q-0.046875 -0.0078125 -0.1171875 -0.0078125 l-0.15625 0 l-0.45313 0 q-0.1796875 0 -0.3203125 0.00390625 t-0.23438 0.0039063 q-0.1328125 0.0078125 -0.21875 0.03515625 t-0.125 0.089844 q-0.0625 0.09375 -0.046875 0.234375 l0 0.10938 t-0.0078125 0.085938 q-0.015625 0.09375 -0.0234375 0.19921875 t0 0.23047 q0 0.21875 0.171875 0.3671875 q0.140625 0.125 0.5078125 0.1015625 q0.1640625 -0.0078125 0.32421875 -0.02734375 t0.32422 -0.011719 q0.0703125 0 0.18359375 0.00390625 t0.26953 -0.0039063 q0.3125 -0.0078125 0.421875 0.109375 q0.0390625 0.0546875 0.03125 0.1796875 q-0.0234375 0.140625 -0.21875 0.171875 q-0.1796875 0.03125 -0.2890625 0.03125 q-0.140625 0.0078125 -0.27734375 0.00390625 t-0.27734 0.0039063 q-0.171875 0.015625 -0.3515625 0.0078125 t-0.375 -0.023438 q-0.0234375 0 -0.0546875 -0.00390625 t-0.054688 -0.0039063 l-0.0078125 0 q-0.0859375 -0.015625 -0.171875 0.0390625 q-0.140625 0.0859375 -0.15625 0.296875 q-0.015625 0.203125 0 0.3515625 q0.0078125 0.0859375 0.01171875 0.15625 t-0.0039063 0.125 q-0.015625 0.1171875 -0.02734375 0.23046875 t-0.027344 0.23047 q-0.0234375 0.296875 0.078125 0.4453125 q0.1328125 0.1796875 0.4609375 0.1796875 q0.2578125 0 0.5234375 -0.01171875 t0.53125 -0.027344 q0.2421875 -0.0078125 0.49609375 0.015625 t0.50391 0.023438 q0.09375 0 0.25 -0.00390625 t0.24219 0.042969 q0.078125 0.046875 0.0859375 0.140625 q0.0859375 0.28125 -0.2421875 0.296875 q-0.515625 0.0234375 -1.01171875 0.015625 t-0.99609 0 q-0.03125 0 -0.05859375 0.00390625 t-0.050781 0.0039063 l-0.30859 0 t-0.21484 -0.0078125 q-0.0546875 0 -0.12890625 -0.00390625 t-0.16797 -0.011719 q-0.078125 -0.0078125 -0.12890625 -0.015625 t-0.074219 -0.015625 q-0.234375 -0.0703125 -0.234375 -0.4375 z  M61.36719000000022 17.1172 q0.0078125 0.1953125 0 0.390625 t0 0.38281 q0.0078125 0.625 0 0.9375 q0 0.140625 -0.1171875 0.2109375 q-0.125 0.0625 -0.21875 0.0078125 q-0.09375 -0.03125 -0.109375 -0.1796875 q-0.015625 -0.25 -0.0234375 -0.5 t-0.0078125 -0.50781 q0.0078125 -0.3125 0.01171875 -0.625 t0.0039063 -0.64063 q0 -0.1875 0.00390625 -0.37890625 t-0.0039063 -0.37891 q0 -0.21875 -0.00390625 -0.45703125 t0.011719 -0.50391 q0.0078125 -0.046875 0.0078125 -0.1171875 l0 -0.17188 q0 -0.1640625 0.0078125 -0.1875 q0.0078125 -0.0703125 0.1328125 -0.15625 q0.1015625 -0.0625 0.4140625 -0.078125 q0.15625 -0.0078125 0.26953125 -0.01171875 t0.19141 -0.0039063 q0.2109375 -0.0078125 0.43359375 0.0078125 t0.44922 0.023438 q0.125 0.0078125 0.27734375 0.01953125 t0.33203 0.042969 q0.359375 0.046875 0.5625 0.2109375 l0.0078125 0 q0.265625 0.2265625 0.40234375 0.4921875 t0.12109 0.59375 q-0.0078125 0.2265625 -0.109375 0.39453125 t-0.28125 0.29297 q-0.3359375 0.234375 -0.734375 0.3203125 q0.03125 -0.015625 -0.109375 0.0234375 q-0.234375 0.03125 -0.47265625 0.01953125 t-0.47266 0.019531 q-0.078125 0.0078125 -0.18359375 0.01171875 t-0.25391 -0.0039063 q-0.2734375 -0.015625 -0.3984375 0.078125 q-0.15625 0.1171875 -0.140625 0.421875 z M62.66405000000022 16.125 q0.3046875 0 0.59375 -0.03125 t0.5625 -0.23438 q0.2890625 -0.21875 0.234375 -0.515625 q-0.0625 -0.296875 -0.328125 -0.484375 q-0.0625 -0.046875 -0.14453125 -0.08203125 t-0.16797 -0.066406 q-0.3984375 -0.0859375 -0.7421875 -0.0390625 q-0.171875 0.0234375 -0.3515625 0.03515625 t-0.36719 0.0039063 q-0.09375 0 -0.1640625 -0.00390625 t-0.10938 -0.011719 q-0.046875 -0.015625 -0.0859375 0 q-0.1953125 0.046875 -0.2109375 0.34375 q-0.0078125 0.0625 -0.01171875 0.1640625 t-0.0039063 0.23438 q0.0078125 0.0390625 0.0078125 0.09765625 l0 0.13672 q0.015625 0.2734375 0.171875 0.3984375 q0.1484375 0.1328125 0.515625 0.1171875 q0.1328125 -0.0078125 0.26171875 -0.0234375 t0.26953 -0.039063 l0.070313 0 z M71.87501250000024 18.8125 q0 0.1953125 -0.1640625 0.25 q-0.140625 0.0625 -0.25 -0.09375 q-0.0546875 -0.078125 -0.08984375 -0.140625 t-0.058594 -0.11719 q-0.109375 -0.234375 -0.1953125 -0.41015625 t-0.17188 -0.28516 q-0.1875 -0.2578125 -0.4140625 -0.328125 q-0.1953125 -0.0625 -0.625 -0.015625 q-0.25 0.03125 -0.47265625 0.0390625 t-0.42578 -0.0078125 q-0.453125 -0.03125 -0.671875 0.2890625 l-0.015625 0.023438 l-0.0078125 0.015625 q-0.078125 0.15625 -0.12890625 0.30859375 t-0.12109 0.29297 l-0.16406 0.25781 q-0.109375 0.1640625 -0.2265625 0.1796875 q-0.0546875 0.0234375 -0.15625 -0.0625 q-0.046875 -0.046875 -0.05859375 -0.11328125 t0 -0.13672 t0.039063 -0.14453 t0.050781 -0.12891 l0.1875 -0.39063 q0.2734375 -0.5625 0.51171875 -1.140625 t0.50391 -1.1641 q0.046875 -0.1015625 0.08203125 -0.19140625 t0.074219 -0.17578 q0.0859375 -0.2109375 0.171875 -0.42578125 t0.19531 -0.42578 l0.11719 -0.17969 q0.0859375 -0.140625 0.1640625 -0.1484375 q0.078125 -0.015625 0.203125 0.1328125 q0.1328125 0.15625 0.25390625 0.3671875 t0.20703 0.39844 q0.2734375 0.578125 0.51171875 1.16015625 t0.51172 1.1445 q0.0859375 0.171875 0.16796875 0.34765625 t0.17578 0.33984 q0.046875 0.1171875 0.09765625 0.2265625 t0.097656 0.21875 q0.0390625 0.0859375 0.0625 0.140625 t0.03125 0.09375 z M70.32811250000024 16.625 q-0.078125 -0.1875 -0.15234375 -0.38671875 t-0.17578 -0.38672 q-0.1875 -0.359375 -0.4140625 -0.34375 q-0.0859375 0 -0.15234375 0.046875 t-0.11328 0.11328 t-0.085938 0.14453 t-0.0625 0.14844 q-0.0859375 0.234375 -0.1640625 0.484375 t-0.14844 0.48438 q-0.0546875 0.171875 0.015625 0.2578125 q0.046875 0.078125 0.2421875 0.09375 q0.171875 0.0078125 0.3046875 0.01171875 t0.21875 -0.0039063 q0.171875 0 0.453125 -0.046875 q0.2890625 -0.046875 0.34375 -0.2578125 q0.0234375 -0.125 -0.03125 -0.2109375 q-0.015625 -0.03125 -0.04296875 -0.07421875 t-0.035156 -0.074219 z M78.03911250000027 14.4687 q0.1640625 0.1640625 0.26171875 0.359375 l0.19922 0.39844 q0.109375 0.2265625 0.06640625 0.45703125 t-0.25391 0.44922 q-0.1640625 0.171875 -0.546875 0.2734375 q-0.140625 0.0390625 -0.30078125 0.08203125 t-0.22266 0.18359 q-0.046875 0.1328125 0.0234375 0.2734375 q0.078125 0.1484375 0.125 0.2421875 t0.078125 0.14063 q0.0390625 0.078125 0.1015625 0.17578125 t0.14844 0.22266 q0.1796875 0.25 0.37890625 0.46875 t0.40234 0.42188 l0.039063 0.039063 q0.171875 0.171875 0.0078125 0.3359375 q-0.1796875 0.1796875 -0.34375 0.0078125 l-0.23438 -0.23438 t-0.1875 -0.20313 q-0.1875 -0.234375 -0.3515625 -0.4921875 q-0.1171875 -0.171875 -0.23828125 -0.33203125 t-0.23047 -0.34766 q-0.3125 -0.5625 -0.7734375 -0.7421875 q-0.4921875 -0.1796875 -0.71875 0.140625 q-0.0703125 0.109375 -0.0703125 0.2421875 l0 1.6953 l0 0.10156 q0 0.234375 -0.2421875 0.2421875 q-0.2421875 -0.0078125 -0.2421875 -0.296875 q0 -0.1796875 0.01171875 -0.37109375 t0.019531 -0.41016 q0.0078125 -0.1484375 -0.00390625 -0.3046875 t-0.011719 -0.30469 t0.0078125 -0.29688 t0.0078125 -0.29688 q0.0078125 -0.3515625 -0.0234375 -0.7265625 q0 -0.2578125 0.01171875 -0.5234375 t0.0039063 -0.53906 q-0.0078125 -0.140625 -0.0078125 -0.31640625 t0.046875 -0.31641 q0.140625 -0.1875 0.6640625 -0.1875 l0.24219 0 q0.28125 0 0.56640625 0.0234375 t0.56641 0.0078125 q0.6484375 -0.03125 1.0234375 0.2578125 z M75.84375250000026 16.1562 q0.296875 0.0078125 0.5234375 0.0078125 t0.38281 -0.015625 q0.1484375 -0.015625 0.33203125 -0.0390625 t0.40234 -0.0625 q0.4453125 -0.09375 0.578125 -0.4140625 q0.0546875 -0.1171875 0.0390625 -0.2578125 t-0.089844 -0.25781 t-0.1875 -0.19922 t-0.24609 -0.14063 t-0.25781 -0.082031 q-0.328125 -0.0625 -0.65234375 -0.05078125 t-0.65234 -0.0039063 q-0.0625 0 -0.12109375 -0.00390625 t-0.12109 -0.0039063 q-0.1640625 -0.0078125 -0.25 0.0859375 q-0.0703125 0.078125 -0.0546875 0.21875 q0.0078125 0.0390625 0.0078125 0.1640625 q-0.0078125 0.1171875 -0.02734375 0.2265625 t-0.027344 0.21875 q-0.046875 0.3046875 0.0703125 0.453125 q0.1015625 0.140625 0.3515625 0.15625 z M85.5234250000003 14.5547 q-0.109375 0.125 -0.359375 0.109375 l-0.39063 -0.023438 q-0.1171875 -0.0078125 -0.2265625 -0.015625 t-0.22656 -0.0078125 q-0.234375 -0.0078125 -0.34375 0.1015625 q-0.0859375 0.1015625 -0.0859375 0.3359375 q0 0.109375 0.01171875 0.21484375 t0.011719 0.21484 q0.0078125 0.2578125 0.01171875 0.44921875 t0.0039063 0.32422 q0 0.3984375 -0.046875 0.796875 q-0.0234375 0.1875 0 0.375 t0.03125 0.36719 q0.0078125 0.203125 0.01171875 0.3515625 t0.0039063 0.25 l0 0.10547 t-0.0078125 0.16797 q-0.015625 0.2109375 -0.03125 0.2578125 q-0.1015625 0.171875 -0.265625 0.125 q-0.203125 -0.0390625 -0.203125 -0.296875 q-0.0078125 -0.234375 0.01171875 -0.47265625 t0.035156 -0.47266 q0.0234375 -0.2734375 -0.00390625 -0.5546875 t-0.027344 -0.5625 q0 -0.2578125 0.01953125 -0.51953125 t0.027344 -0.51953 q0 -0.5078125 -0.1640625 -0.71875 q-0.0859375 -0.109375 -0.20703125 -0.16796875 t-0.26953 -0.074219 t-0.27734 -0.027344 t-0.25391 -0.011719 l-0.23828 0 t-0.22266 -0.046875 q-0.0625 -0.03125 -0.078125 -0.1484375 q-0.015625 -0.0859375 0.0234375 -0.1484375 q0.0546875 -0.09375 0.2734375 -0.1171875 q0.0234375 -0.0078125 0.0859375 -0.0078125 q0.328125 -0.0078125 0.63671875 0.02734375 t0.63672 0.011719 q0.1328125 -0.0078125 0.26171875 -0.0234375 t0.26953 -0.015625 l0.51953 0 t0.51953 -0.0078125 q0.1328125 0 0.23046875 0.0078125 t0.16797 0.039063 q0.2421875 0.1640625 0.125 0.328125 z M91.79687500000033 14.2187 q0.328125 -0.0078125 0.1484375 0.34375 q-0.0390625 0.078125 -0.109375 0.1796875 t-0.17188 0.23438 q-0.2265625 0.296875 -0.3515625 0.546875 q-0.1171875 0.234375 -0.26953125 0.46875 t-0.33203 0.47656 l0 0.0078125 q-0.09375 0.140625 -0.13671875 0.26953125 t-0.058594 0.24609 q-0.015625 0.140625 0.00390625 0.2734375 t0.019531 0.26563 q0 0.1875 -0.01171875 0.36328125 t0.011719 0.36328 q0.0078125 0.0703125 0.015625 0.1640625 t0.015625 0.21875 q0.015625 0.25 -0.078125 0.359375 q-0.0546875 0.0546875 -0.171875 0.0703125 q-0.25 0.0234375 -0.2734375 -0.3671875 q-0.015625 -0.3515625 0.015625 -0.71875 t0.054688 -0.72656 q0.0234375 -0.3046875 -0.1015625 -0.4921875 q-0.0625 -0.0859375 -0.12109375 -0.1953125 t-0.13672 -0.23438 q-0.0859375 -0.1328125 -0.16796875 -0.26953125 t-0.16797 -0.27734 q-0.09375 -0.1484375 -0.15625 -0.26171875 t-0.10156 -0.19141 q-0.0625 -0.109375 -0.1015625 -0.1875 t-0.070313 -0.11719 t-0.078125 -0.10156 t-0.10938 -0.14063 q-0.1953125 -0.25 -0.1953125 -0.3671875 q-0.015625 -0.0703125 0.03125 -0.1484375 q0.21875 -0.2578125 0.4140625 0.03125 q0.1640625 0.234375 0.2890625 0.4921875 t0.26563 0.5 q0.109375 0.1796875 0.19140625 0.30078125 t0.16016 0.19141 q0.1875 0.2109375 0.3984375 0.1640625 q0.1875 -0.0390625 0.359375 -0.2890625 q0.0703125 -0.09375 0.1328125 -0.1953125 t0.13281 -0.20313 q0.0625 -0.078125 0.109375 -0.17578125 t0.089844 -0.19922 t0.089844 -0.20313 t0.10938 -0.19531 q0.171875 -0.2421875 0.4140625 -0.2734375 z" style="fill: #ffffff;"/></g><defs id="SvgjsDefs1100"/><g id="SvgjsG1103" fill="#ffffff" rel="mainfill" name="symbol" xmlns:name="symbol_mainfill" transform="translate(0,0) scale(0.87)"><circle cx="22.5" cy="19.998" r="3.5"/><circle cx="22.5" cy="47" r="3.5"/><path d="M0,100h45V0H0V100z M22.5,9.998c5.523,0,10,4.477,10,10s-4.477,10-10,10s-10-4.477-10-10S16.977,9.998,22.5,9.998z M22.5,37  c5.523,0,10,4.477,10,10s-4.477,10-10,10s-10-4.478-10-10S16.977,37,22.5,37z M22.5,63.169c8.192,0,14.833,6.642,14.833,14.833  c0,8.192-6.641,14.834-14.833,14.834c-8.192,0-14.833-6.642-14.833-14.834C7.667,69.811,14.308,63.169,22.5,63.169z" fill="#ffffff" style="fill: #ffffff;"/><path d="M22.5,89.253c6.213,0,11.25-5.037,11.25-11.251c0-6.213-5.037-11.25-11.25-11.25c-6.213,0-11.25,5.037-11.25,11.25  C11.25,84.216,16.287,89.253,22.5,89.253z M22.5,74.064c2.175,0,3.938,1.764,3.938,3.938c0,2.175-1.763,3.938-3.938,3.938  s-3.938-1.764-3.938-3.938C18.562,75.828,20.325,74.064,22.5,74.064z" fill="#ffffff" style="fill: #ffffff;"/><circle cx="77.5" cy="19.998" r="3.5"/><circle cx="77.5" cy="47" r="3.5"/><path d="M55,0v100h45V0H55z M77.5,9.998c5.522,0,10,4.477,10,10s-4.478,10-10,10s-10-4.477-10-10S71.978,9.998,77.5,9.998z M77.5,37  c5.522,0,10,4.477,10,10s-4.478,10-10,10s-10-4.478-10-10S71.978,37,77.5,37z M77.5,92.836c-8.192,0-14.833-6.642-14.833-14.834  c0-8.191,6.641-14.833,14.833-14.833s14.833,6.642,14.833,14.833C92.333,86.194,85.692,92.836,77.5,92.836z" fill="#ffffff" style="fill: #ffffff;"/><path d="M77.5,66.752c-6.213,0-11.25,5.037-11.25,11.25c0,6.214,5.037,11.251,11.25,11.251s11.25-5.037,11.25-11.251  C88.75,71.789,83.713,66.752,77.5,66.752z M77.5,81.94c-2.175,0-3.938-1.764-3.938-3.938c0-2.174,1.763-3.938,3.938-3.938  s3.938,1.764,3.938,3.938C81.438,80.177,79.675,81.94,77.5,81.94z" fill="#ffffff" style="fill: #ffffff;"/></g>
                </g>
            </svg>
        